<svg xmlns="http://www.w3.org/2000/svg" width="1128" height="440" viewBox="0 0 1128 440" role="img" aria-label="Intracranial correlation grid"><style>.figure-title{font:700 28px Arial,Helvetica,sans-serif;fill:#111827;}.panel-title{font:700 15px Arial,Helvetica,sans-serif;fill:#111827;}.row-label{font:700 13px Arial,Helvetica,sans-serif;fill:#111827;}.axis-text{font:12px Arial,Helvetica,sans-serif;fill:#111827;}.tick-text{font:11px Arial,Helvetica,sans-serif;fill:#334155;}.stat-text{font:700 13px Arial,Helvetica,sans-serif;fill:#111827;}.grid-line{stroke:#e5e7eb;stroke-width:1;}.axis-line{stroke:#111827;stroke-width:1.2;}.fit-line{stroke:#efb4c0;stroke-width:3;fill:none;}.dot{fill:#000000;}</style><defs><clipPath id="panel-clip-0-0" clipPathUnits="userSpaceOnUse"><rect x="76.0" y="92.0" width="240.0" height="210.0"/></clipPath><clipPath id="panel-clip-0-1" clipPathUnits="userSpaceOnUse"><rect x="428.0" y="92.0" width="240.0" height="210.0"/></clipPath><clipPath id="panel-clip-0-2" clipPathUnits="userSpaceOnUse"><rect x="780.0" y="92.0" width="240.0" height="210.0"/></clipPath></defs><rect x="0" y="0" width="100%" height="100%" fill="#ffffff"/><text x="76" y="38" class="figure-title">Intracranial Linear Regression</text><text x="196.0" y="58.0" text-anchor="middle" class="panel-title"><tspan x="196.0" dy="0">Cz delta</tspan><tspan x="196.0" dy="14">increase end (s)</tspan></text><line x1="76.0" x2="316.0" y1="302.0" y2="302.0" class="grid-line"/><text x="68.0" y="306.0" text-anchor="end" class="tick-text">150</text><line x1="76.0" x2="316.0" y1="232.0" y2="232.0" class="grid-line"/><text x="68.0" y="236.0" text-anchor="end" class="tick-text">200</text><line x1="76.0" x2="316.0" y1="162.0" y2="162.0" class="grid-line"/><text x="68.0" y="166.0" text-anchor="end" class="tick-text">250</text><line x1="76.0" x2="316.0" y1="92.0" y2="92.0" class="grid-line"/><text x="68.0" y="96.0" text-anchor="end" class="tick-text">300</text><line x1="76.0" x2="76.0" y1="92.0" y2="302.0" class="grid-line"/><text x="76.0" y="320.0" text-anchor="middle" class="tick-text">0</text><line x1="144.6" x2="144.6" y1="92.0" y2="302.0" class="grid-line"/><text x="144.6" y="320.0" text-anchor="middle" class="tick-text">100</text><line x1="213.1" x2="213.1" y1="92.0" y2="302.0" class="grid-line"/><text x="213.1" y="320.0" text-anchor="middle" class="tick-text">200</text><line x1="281.7" x2="281.7" y1="92.0" y2="302.0" class="grid-line"/><text x="281.7" y="320.0" text-anchor="middle" class="tick-text">300</text><line x1="316.0" x2="316.0" y1="92.0" y2="302.0" class="grid-line"/><text x="316.0" y="320.0" text-anchor="middle" class="tick-text">350</text><line x1="76.0" x2="316.0" y1="302.0" y2="302.0" class="axis-line"/><line x1="76.0" x2="76.0" y1="92.0" y2="302.0" class="axis-line"/><line x1="154.3" y1="302.0" x2="311.0" y2="92.0" class="fit-line" clip-path="url(#panel-clip-0-0)"/><circle cx="216.6" cy="222.9" r="3.4" class="dot" clip-path="url(#panel-clip-0-0)"><title>P1001: x=205 s, y=206.5 s</title></circle><circle cx="197.4" cy="267.7" r="3.4" class="dot" clip-path="url(#panel-clip-0-0)"><title>P1002: x=177 s, y=174.5 s</title></circle><circle cx="283.8" cy="134.7" r="3.4" class="dot" clip-path="url(#panel-clip-0-0)"><title>P1003: x=303 s, y=269.5 s</title></circle><circle cx="239.2" cy="173.9" r="3.4" class="dot" clip-path="url(#panel-clip-0-0)"><title>P1004: x=238 s, y=241.5 s</title></circle><circle cx="185.7" cy="241.1" r="3.4" class="dot" clip-path="url(#panel-clip-0-0)"><title>P1005: x=160 s, y=193.5 s</title></circle><circle cx="233.0" cy="199.1" r="3.4" class="dot" clip-path="url(#panel-clip-0-0)"><title>P1006: x=229 s, y=223.5 s</title></circle><circle cx="295.4" cy="109.5" r="3.4" class="dot" clip-path="url(#panel-clip-0-0)"><title>P1008: x=320 s, y=287.5 s</title></circle><text x="86.0" y="112.0" class="stat-text">p &lt; 0.01</text><text x="86.0" y="132.0" class="stat-text">r²=0.94</text><text x="196.0" y="344.0" text-anchor="middle" class="axis-text"><tspan x="196.0" dy="0">Object drop</tspan><tspan x="196.0" dy="14">(s)</tspan></text><g transform="translate(26.0,197.0) rotate(-90)"><text x="0.0" y="0.0" text-anchor="middle" class="row-label"><tspan x="0.0" dy="0">Cz delta</tspan><tspan x="0.0" dy="14">increase end (s)</tspan></text></g><text x="548.0" y="58.0" text-anchor="middle" class="panel-title"><tspan x="548.0" dy="0">Cz beta</tspan><tspan x="548.0" dy="14">decrease end (s)</tspan></text><line x1="428.0" x2="668.0" y1="302.0" y2="302.0" class="grid-line"/><text x="420.0" y="306.0" text-anchor="end" class="tick-text">150</text><line x1="428.0" x2="668.0" y1="249.5" y2="249.5" class="grid-line"/><text x="420.0" y="253.5" text-anchor="end" class="tick-text">200</text><line x1="428.0" x2="668.0" y1="197.0" y2="197.0" class="grid-line"/><text x="420.0" y="201.0" text-anchor="end" class="tick-text">250</text><line x1="428.0" x2="668.0" y1="144.5" y2="144.5" class="grid-line"/><text x="420.0" y="148.5" text-anchor="end" class="tick-text">300</text><line x1="428.0" x2="668.0" y1="92.0" y2="92.0" class="grid-line"/><text x="420.0" y="96.0" text-anchor="end" class="tick-text">350</text><line x1="428.0" x2="428.0" y1="92.0" y2="302.0" class="grid-line"/><text x="428.0" y="320.0" text-anchor="middle" class="tick-text">0</text><line x1="496.6" x2="496.6" y1="92.0" y2="302.0" class="grid-line"/><text x="496.6" y="320.0" text-anchor="middle" class="tick-text">100</text><line x1="565.1" x2="565.1" y1="92.0" y2="302.0" class="grid-line"/><text x="565.1" y="320.0" text-anchor="middle" class="tick-text">200</text><line x1="633.7" x2="633.7" y1="92.0" y2="302.0" class="grid-line"/><text x="633.7" y="320.0" text-anchor="middle" class="tick-text">300</text><line x1="668.0" x2="668.0" y1="92.0" y2="302.0" class="grid-line"/><text x="668.0" y="320.0" text-anchor="middle" class="tick-text">350</text><line x1="428.0" x2="668.0" y1="302.0" y2="302.0" class="axis-line"/><line x1="428.0" x2="428.0" y1="92.0" y2="302.0" class="axis-line"/><line x1="514.0" y1="302.0" x2="668.0" y2="125.2" class="fit-line" clip-path="url(#panel-clip-0-1)"/><circle cx="568.6" cy="225.9" r="3.4" class="dot" clip-path="url(#panel-clip-0-1)"><title>P1001: x=205 s, y=222.5 s</title></circle><circle cx="549.4" cy="273.1" r="3.4" class="dot" clip-path="url(#panel-clip-0-1)"><title>P1002: x=177 s, y=177.5 s</title></circle><circle cx="635.8" cy="136.6" r="3.4" class="dot" clip-path="url(#panel-clip-0-1)"><title>P1003: x=303 s, y=307.5 s</title></circle><circle cx="591.2" cy="216.4" r="3.4" class="dot" clip-path="url(#panel-clip-0-1)"><title>P1004: x=238 s, y=231.5 s</title></circle><circle cx="537.7" cy="255.3" r="3.4" class="dot" clip-path="url(#panel-clip-0-1)"><title>P1005: x=160 s, y=194.5 s</title></circle><circle cx="585.0" cy="255.3" r="3.4" class="dot" clip-path="url(#panel-clip-0-1)"><title>P1006: x=229 s, y=194.5 s</title></circle><circle cx="647.4" cy="157.6" r="3.4" class="dot" clip-path="url(#panel-clip-0-1)"><title>P1008: x=320 s, y=287.5 s</title></circle><text x="438.0" y="112.0" class="stat-text">p &lt; 0.05</text><text x="438.0" y="132.0" class="stat-text">r²=0.84</text><text x="548.0" y="344.0" text-anchor="middle" class="axis-text"><tspan x="548.0" dy="0">Object drop</tspan><tspan x="548.0" dy="14">(s)</tspan></text><g transform="translate(378.0,197.0) rotate(-90)"><text x="0.0" y="0.0" text-anchor="middle" class="row-label"><tspan x="0.0" dy="0">Cz beta</tspan><tspan x="0.0" dy="14">decrease end (s)</tspan></text></g><text x="900.0" y="58.0" text-anchor="middle" class="panel-title"><tspan x="900.0" dy="0">Cz gamma</tspan><tspan x="900.0" dy="14">decrease end (s)</tspan></text><line x1="780.0" x2="1020.0" y1="302.0" y2="302.0" class="grid-line"/><text x="772.0" y="306.0" text-anchor="end" class="tick-text">150</text><line x1="780.0" x2="1020.0" y1="249.5" y2="249.5" class="grid-line"/><text x="772.0" y="253.5" text-anchor="end" class="tick-text">200</text><line x1="780.0" x2="1020.0" y1="197.0" y2="197.0" class="grid-line"/><text x="772.0" y="201.0" text-anchor="end" class="tick-text">250</text><line x1="780.0" x2="1020.0" y1="144.5" y2="144.5" class="grid-line"/><text x="772.0" y="148.5" text-anchor="end" class="tick-text">300</text><line x1="780.0" x2="1020.0" y1="92.0" y2="92.0" class="grid-line"/><text x="772.0" y="96.0" text-anchor="end" class="tick-text">350</text><line x1="780.0" x2="780.0" y1="92.0" y2="302.0" class="grid-line"/><text x="780.0" y="320.0" text-anchor="middle" class="tick-text">0</text><line x1="848.6" x2="848.6" y1="92.0" y2="302.0" class="grid-line"/><text x="848.6" y="320.0" text-anchor="middle" class="tick-text">100</text><line x1="917.1" x2="917.1" y1="92.0" y2="302.0" class="grid-line"/><text x="917.1" y="320.0" text-anchor="middle" class="tick-text">200</text><line x1="985.7" x2="985.7" y1="92.0" y2="302.0" class="grid-line"/><text x="985.7" y="320.0" text-anchor="middle" class="tick-text">300</text><line x1="1020.0" x2="1020.0" y1="92.0" y2="302.0" class="grid-line"/><text x="1020.0" y="320.0" text-anchor="middle" class="tick-text">350</text><line x1="780.0" x2="1020.0" y1="302.0" y2="302.0" class="axis-line"/><line x1="780.0" x2="780.0" y1="92.0" y2="302.0" class="axis-line"/><line x1="846.2" y1="302.0" x2="1020.0" y2="122.3" class="fit-line" clip-path="url(#panel-clip-0-2)"/><circle cx="920.6" cy="222.7" r="3.4" class="dot" clip-path="url(#panel-clip-0-2)"><title>P1001: x=205 s, y=225.5 s</title></circle><circle cx="901.4" cy="251.1" r="3.4" class="dot" clip-path="url(#panel-clip-0-2)"><title>P1002: x=177 s, y=198.5 s</title></circle><circle cx="987.8" cy="144.0" r="3.4" class="dot" clip-path="url(#panel-clip-0-2)"><title>P1003: x=303 s, y=300.5 s</title></circle><circle cx="943.2" cy="211.2" r="3.4" class="dot" clip-path="url(#panel-clip-0-2)"><title>P1004: x=238 s, y=236.5 s</title></circle><circle cx="889.7" cy="260.5" r="3.4" class="dot" clip-path="url(#panel-clip-0-2)"><title>P1005: x=160 s, y=189.5 s</title></circle><circle cx="937.0" cy="189.1" r="3.4" class="dot" clip-path="url(#panel-clip-0-2)"><title>P1006: x=229 s, y=257.5 s</title></circle><circle cx="999.4" cy="157.6" r="3.4" class="dot" clip-path="url(#panel-clip-0-2)"><title>P1008: x=320 s, y=287.5 s</title></circle><text x="790.0" y="112.0" class="stat-text">p &lt; 0.01</text><text x="790.0" y="132.0" class="stat-text">r²=0.93</text><text x="900.0" y="344.0" text-anchor="middle" class="axis-text"><tspan x="900.0" dy="0">Object drop</tspan><tspan x="900.0" dy="14">(s)</tspan></text><g transform="translate(730.0,197.0) rotate(-90)"><text x="0.0" y="0.0" text-anchor="middle" class="row-label"><tspan x="0.0" dy="0">Cz gamma</tspan><tspan x="0.0" dy="14">decrease end (s)</tspan></text></g></svg>